<?xml version="1.0" encoding="utf-8"?>
<!DOCTYPE svg PUBLIC "-//W3C//DTD SVG 20010904//EN" "http://www.w3.org/TR/2001/REC-SVG-20010904/DTD/svg10.dtd">
<svg version="1.0" xmlns="http://www.w3.org/2000/svg" width="516px" height="550px" viewBox="0 0 516 550" preserveAspectRatio="xMidYMid meet">
 <g fill="#ffffff" stroke="#ffffff" stroke-width="1">
  <path d="M11 546.8 c-1.9 -0.7 -4 -2.4 -4.7 -3.8 -1.8 -3.6 -1.9 -383.6 -0.1 -387.5 0.7 -1.5 3 -3.6 5.2 -4.7 2.2 -1.1 13.7 -7.9 25.5 -15.1 21.7 -13.1 32.3 -19.3 61.1 -35.9 8.5 -4.9 15.7 -9.3 16 -9.8 0.5 -0.7 23.6 -14.7 91.5 -55.2 45 -26.8 46.8 -27.8 50.8 -27.8 3.9 0 16.4 6.1 31.2 15.1 13.3 8.2 59 35.5 76.5 45.9 24.9 14.7 35.4 21.2 36 22 0.3 0.3 3.9 2.6 8 5 4.1 2.4 11.8 6.9 17 10 18.5 11.1 37.1 22 37.5 22 0.6 0 19.2 10.7 22.5 12.9 1.4 1 7 4.2 12.4 7.2 7.9 4.3 10.2 6 11.3 8.6 1.1 2.7 1.3 36 1.3 192.6 0 131.9 -0.3 190.3 -1.1 192.5 -2.2 6.5 16.2 6 -251.5 6.7 -195.6 0.4 -243.6 0.3 -246.4 -0.7z m78.1 -17.8 c7.4 0 9.3 -1.5 9.1 -7 -0.2 -4.9 -4.1 -18 -5.4 -18 -0.4 0 -0.8 -2.1 -0.8 -4.7 0 -2.7 -0.5 -6.6 -1 -8.8 -0.5 -2.2 -1.7 -10.4 -2.6 -18.2 -1.3 -11.9 -1.4 -16.6 -0.5 -30.2 0.6 -8.9 1.8 -19.6 2.6 -23.9 0.8 -4.2 1.5 -9.6 1.5 -11.9 0 -2.4 0.4 -4.3 0.8 -4.3 1 0 3.5 -7.1 5.7 -16 2.3 -8.9 11.3 -30.5 17.8 -42.5 5.6 -10.3 23.9 -40.8 26.1 -43.5 2.9 -3.5 2.6 -4.7 -1.4 -5.3 -2.1 -0.3 -4.9 -1.3 -6.3 -2.3 -2.2 -1.7 -10.2 -13.1 -13.3 -18.8 -0.6 -1.2 -4.1 -6.7 -7.7 -12.3 -8.3 -12.5 -9.9 -16.3 -10 -23.3 0 -6.8 3.8 -15.5 8.8 -19.9 1.9 -1.7 14.8 -8.7 28.7 -15.7 13.9 -6.9 26.1 -13.3 27 -14.1 1 -0.9 2.5 -3.6 3.4 -6.2 4 -10.9 9.9 -23.9 12.4 -27.7 6.9 -10 14.1 -14.4 36 -22.1 l16.5 -5.8 15 0 c15.7 0 17.5 0.4 36 6.7 9.2 3.1 28 13.2 37.7 20.1 35.2 25.2 63.5 59.5 86.3 104.7 14.1 27.9 28.9 72.8 32.5 99 0.7 4.7 1.9 11 2.7 14 3.7 13.6 3.3 77.7 -0.6 94.9 -1.1 4.7 -2.9 13.8 -4.1 20.1 -1.2 6.3 -3.5 16.2 -5.2 22 -3.8 13.4 -4.5 18 -2.7 19.1 0.8 0.5 13.2 0.9 27.6 0.9 l26.2 0 2 -2.6 2.1 -2.7 0 -176.8 c0 -106.8 -0.4 -177.7 -0.9 -179.2 -1.3 -3.3 -12.8 -11 -32.1 -21.5 -3.6 -1.9 -12.6 -7.3 -20.1 -11.9 -7.5 -4.5 -13.9 -8.3 -14.3 -8.3 -0.3 0 -5.4 -2.8 -11.3 -6.3 -6 -3.5 -12.4 -7.3 -14.3 -8.4 -11.2 -6.6 -32.6 -19.7 -33 -20.2 -0.3 -0.4 -10.6 -6.7 -23 -14.1 -12.4 -7.3 -31.8 -18.9 -43.1 -25.6 -11.3 -6.8 -21.4 -12.6 -22.5 -13 -1 -0.4 -5 -2.6 -8.9 -5 -3.8 -2.3 -8.2 -4.6 -9.7 -4.9 -3.4 -0.9 -9.5 1.9 -25.3 11.5 -6.6 4 -28.2 16.9 -48 28.7 -19.8 11.8 -36.2 21.8 -36.5 22.2 -0.3 0.5 -10.2 6.6 -22 13.6 -11.8 7 -23.7 14.1 -26.5 15.8 -2.7 1.7 -6.8 3.9 -9 5 -7.5 3.7 -67 39.8 -68.3 41.5 -0.9 1.2 -1.2 38.9 -1.2 180.6 0 111 0.4 179.7 1 180.6 0.8 1.2 5.4 1.6 27.2 2.1 14.5 0.3 27.9 0.4 29.8 0.2 1.9 -0.1 6 -0.3 9.1 -0.3z m237.3 -1 c2.2 -0.8 2.4 -1.3 1.9 -4.7 -1.1 -6.8 -5.2 -17.6 -9.5 -24.8 -8.4 -14.2 -26.2 -28.3 -40.2 -31.9 -5.7 -1.5 -12.6 -5.7 -12.6 -7.7 0 -1.8 -8.3 -9.9 -10.1 -9.9 -1.9 0 -13.4 7.1 -15.4 9.5 -0.5 0.7 -5.7 2.7 -11.4 4.5 -8.7 2.7 -11.4 3.2 -17 2.8 -6.7 -0.5 -24.1 -5.4 -24.1 -6.9 0 -0.4 -1.9 -1.8 -4.2 -3.2 -5.9 -3.4 -13.6 -10.3 -15.3 -13.8 -2.2 -4.1 -1.9 -6.2 1.3 -9.2 4.3 -4.1 7.9 -3.6 15.4 2.1 11.5 8.7 12.6 9.3 20.6 10.7 19.1 3.4 33.4 -2.9 45.3 -19.8 4.5 -6.4 4.9 -7.5 4.9 -12.7 0 -4.9 -0.5 -6.3 -3.5 -10.6 -1.9 -2.7 -3.8 -6.5 -4.1 -8.4 -0.3 -1.9 -1.2 -5.1 -1.9 -7 -0.8 -1.9 -1.9 -6.6 -2.5 -10.5 -1.6 -9.6 -5.9 -17.3 -14 -24.8 -5.4 -5 -10 -7.9 -23.2 -14.5 -9.1 -4.5 -17.3 -9.1 -18.3 -10.2 -1.4 -1.5 -1.9 -4.8 -2.7 -15.2 -1.1 -15.8 -1.6 -16.8 -8 -14.9 -11.2 3.3 -21.4 12.2 -28.3 24.6 -2.2 3.9 -6.2 10.6 -9 15 -10.9 16.9 -20.5 37.7 -24.9 53.5 -1 3.6 -2.8 10.1 -4.1 14.5 -2.8 9.5 -5.1 33.3 -4.8 49 0.3 18.5 2.3 39.6 4.3 46 1 3.3 2.4 8.5 3 11.5 2.2 10.1 4.3 15.4 7 16.7 3.1 1.6 201.3 1.9 205.4 0.3z m84.4 -0.6 c2.8 -1.9 4.7 -5.6 6.1 -11.9 0.6 -2.7 2.2 -9 3.6 -14 3.7 -13.2 7.1 -31.9 9 -49.5 0.9 -8.5 2.1 -17.5 2.6 -19.9 1.3 -5.7 0.4 -29.9 -1.5 -41.6 -0.8 -4.9 -1.7 -12.1 -2 -16 -1.1 -12.9 -4.3 -28 -11.6 -55.5 -1 -3.6 -2.7 -8.5 -3.9 -11 -1.1 -2.5 -2.1 -5.1 -2.1 -5.8 0 -2.4 -13.1 -32.7 -19.1 -44.2 -7.1 -13.6 -18.1 -30.6 -22 -33.7 -5.4 -4.5 -5.9 -4.2 -5.9 3.4 0 17 -9.2 31.3 -25.5 39.5 -5.7 3 -6.6 3.1 -18 3.2 -11.7 0 -12.2 -0.1 -18.5 -3.3 -3.6 -1.9 -8.2 -4.7 -10.2 -6.3 -3.9 -3 -12 -14.5 -13.3 -18.8 -0.4 -1.4 -1.1 -2.7 -1.5 -3 -1.5 -0.9 -3 -16 -3 -29.8 -0.1 -8 -0.6 -16.1 -1.4 -19.4 -1.7 -7.1 -9.3 -21.4 -18.6 -35.4 -8.4 -12.5 -7.7 -12.3 -26 -6.3 -23.7 7.7 -27.9 11.1 -35.6 29.4 -2.8 6.6 -5.9 14.2 -6.9 16.8 -2.3 6 -4.7 7.9 -20.4 15.9 -6.8 3.5 -12.9 7.1 -13.5 8 -0.7 1.2 -0.7 3 0.2 6.3 1.1 4.1 1 5.5 -0.9 11.8 -2.4 8.3 -4.7 12.5 -10.3 18.5 -5.1 5.6 -5.1 8.2 0.3 16 4.8 7.1 5.2 7.2 18.1 4.8 4.1 -0.8 8.8 -1.2 10.4 -0.9 2 0.4 2.7 0.2 2.2 -0.6 -0.5 -0.7 0.1 -1.1 1.6 -1.1 1.3 0 5.2 -0.3 8.8 -0.6 5.7 -0.5 6.8 -0.4 8.9 1.5 2.8 2.5 3.7 2.6 4.8 0.7 0.4 -0.7 1.9 -1.9 3.2 -2.5 2.4 -1.3 3.5 -1.5 18.6 -2.6 13.7 -1 14.5 -1.4 19.5 -9.9 5.2 -8.8 8.7 -11.4 13.1 -9.6 3 1.3 5.9 5.5 5.9 8.5 0 3.1 -9.2 19.3 -13.2 23.2 -3.7 3.6 -4.3 3.8 -10.6 4 -3.7 0 -11.3 0.7 -16.9 1.5 -14.4 2 -17.5 5.2 -13.8 14.1 0.8 2 1.5 5.8 1.5 8.5 0 2.6 0.6 5.5 1.3 6.4 0.6 0.9 8.2 5.1 16.7 9.5 13.6 6.9 16.4 8.7 23.2 15.4 8.6 8.4 14.1 18.2 15.7 28 0.5 3 1.7 7.1 2.5 9.1 0.9 2.1 1.6 5.2 1.6 7 0 2 1.2 5.1 3 7.8 7.3 11 8.8 21.9 4.5 32.5 -1.4 3.3 -2.5 6.9 -2.5 8 0 2.3 6.9 11.4 8.8 11.5 0.6 0 1.2 0.4 1.2 0.9 0 0.4 4.8 3.1 10.8 5.9 5.9 2.7 11.8 5.9 13.2 7 1.4 1.1 6 4.8 10.2 8.2 8.6 6.8 18 18.6 23.3 29 3.3 6.6 9.1 23.3 9.7 28 0.6 4.6 3.1 5 33.8 5 24.3 0 28.9 -0.2 30.8 -1.6z m-79.3 -276.6 c13.2 -6.6 17.4 -15.6 15.3 -32.8 -1.8 -14.8 -9.8 -31.1 -20.1 -40.9 -10.5 -10 -28.4 -21.2 -42 -26.2 -9.6 -3.6 -11.7 -3.7 -11.7 -0.6 0 2.5 1.4 4.8 5.7 9.4 4 4.2 10.8 20.1 12.7 29.6 1 4.5 1.9 15.7 2.2 26.5 0.6 18.7 0.6 18.7 3.7 24 7.3 12.2 22.1 17 34.2 11z m-200.5 -11 c2.1 -2.9 3 -5.3 3 -8 0 -3.6 -0.2 -3.8 -3.1 -3.8 -2.2 0 -4.1 1 -6.5 3.4 -3.6 3.6 -4.1 5.9 -2.2 10.1 1.8 3.9 5.2 3.3 8.8 -1.7z"/>
  <path d="M204.1 393.4 c-4.5 -3.7 -5.8 -9.1 -3.5 -13.9 3.3 -6.9 10.5 -9.3 17.4 -5.6 6.6 3.5 7.6 13.6 2 19.3 -3.9 3.9 -11.4 4 -15.9 0.2z"/>
  <path d="M323.9 406.2 c-5 -3.2 -60.6 -58.8 -62.4 -62.2 -0.9 -1.8 -2.5 -6.7 -3.5 -10.7 -1.7 -7.3 -1.7 -7.5 0.5 -15.2 2.4 -8.7 4.4 -12 10.6 -17.5 4.6 -4.2 9.5 -6.6 13.6 -6.6 1.5 -0.1 5 -0.7 7.8 -1.4 8.8 -2.3 19.4 1.8 30.3 11.7 3.9 3.7 8.1 6.7 9.2 6.7 1.1 0 4.3 -2.4 7.2 -5.3 8.1 -8.2 11.7 -10.4 20.1 -12.7 6.8 -1.9 8.4 -2 13.5 -1 7.7 1.6 12.5 4.3 18.8 10.2 8 7.6 10.4 13.1 10.4 24.3 0 14.9 -0.5 15.6 -36.3 51.3 -28 28 -30.5 30.2 -33.7 30.2 -1.9 0 -4.7 -0.8 -6.1 -1.8z m15.5 -28.1 c19.1 -18 42.3 -42.7 43.5 -46.4 1.9 -5.6 0.5 -11.2 -3.7 -15.9 -4.6 -5.1 -8 -6.8 -13.7 -6.8 -6.5 0 -9.7 2 -20.5 12.5 -10.7 10.4 -15 13.1 -18 11.5 -1.1 -0.6 -6.8 -5.6 -12.7 -11.2 -11.5 -10.8 -14.9 -12.8 -21.3 -12.8 -5.4 0 -9.8 2 -13.6 6.2 -5.6 6.2 -6.6 10.1 -4.3 16.6 1.6 4.7 51.3 54.2 54.3 54.2 0.9 0 5.4 -3.5 10 -7.9z"/>
  <path d="M210.8 210.9 c-1 -0.5 -2.9 -3 -4.4 -5.4 l-2.6 -4.5 2.4 -4.2 c4.4 -8 13.6 -10.1 19.4 -4.3 4.2 4.2 2.7 17 -2.1 18.9 -2.6 0.9 -10.8 0.7 -12.7 -0.5z"/>
 </g>
</svg>