<?xml version="1.0" standalone="no"?>
<!DOCTYPE svg PUBLIC "-//W3C//DTD SVG 20010904//EN"
 "http://www.w3.org/TR/2001/REC-SVG-20010904/DTD/svg10.dtd">
<svg version="1.0" xmlns="http://www.w3.org/2000/svg"
 width="270.000000pt" height="270.000000pt" viewBox="0 0 270.000000 270.000000"
 preserveAspectRatio="xMidYMid meet">
<metadata>
Created by potrace 1.16, written by Peter Selinger 2001-2019
</metadata>
<g transform="translate(0.000000,270.000000) scale(0.100000,-0.100000)"
fill="#000000" stroke="none">
<path d="M1890 2561 c0 -5 -18 -11 -40 -15 -22 -3 -40 -11 -40 -16 0 -6 -7
-10 -15 -10 -8 0 -15 -4 -15 -9 0 -4 -33 -11 -72 -14 -40 -4 -74 -11 -76 -17
-2 -5 -12 -10 -23 -10 -10 0 -19 -4 -19 -10 0 -5 -6 -10 -14 -10 -19 0 -48
-29 -40 -41 3 -5 -2 -12 -10 -15 -9 -3 -16 -15 -16 -25 0 -10 -4 -19 -10 -19
-5 0 -13 -18 -16 -40 -4 -22 -10 -40 -15 -40 -5 0 -9 -11 -9 -24 0 -13 -4 -26
-10 -28 -5 -1 -13 -42 -16 -90 -4 -49 -11 -88 -15 -88 -5 0 -9 -11 -9 -25 0
-14 4 -25 9 -25 5 0 11 -10 13 -22 2 -15 11 -24 26 -26 12 -2 22 -8 22 -13 0
-5 25 -9 55 -9 30 0 55 4 55 9 0 5 20 12 44 15 32 5 47 13 51 27 6 19 45 27
45 9 0 -5 -4 -10 -10 -10 -5 0 -10 -7 -10 -15 0 -8 -4 -15 -9 -15 -5 0 -13 -9
-16 -20 -4 -11 -15 -20 -26 -20 -11 0 -22 -7 -25 -15 -4 -8 -15 -15 -25 -15
-10 0 -19 -4 -19 -10 0 -5 -13 -10 -28 -10 -37 0 -70 -29 -78 -69 -4 -17 -10
-31 -15 -31 -5 0 -9 -7 -9 -15 0 -8 -4 -15 -10 -15 -5 0 -10 -7 -10 -15 0 -8
-18 -32 -40 -54 -22 -22 -40 -44 -40 -50 0 -6 -5 -11 -11 -11 -6 0 -42 -31
-80 -70 -38 -38 -73 -70 -78 -70 -14 0 -211 -198 -211 -212 0 -6 -8 -18 -19
-27 -10 -9 -21 -26 -25 -38 -4 -13 -12 -23 -17 -23 -5 0 -9 -7 -9 -15 0 -8 -4
-15 -10 -15 -5 0 -12 -16 -16 -35 -3 -19 -10 -35 -15 -35 -5 0 -9 -11 -9 -24
0 -13 -5 -26 -11 -28 -6 -2 -13 -25 -16 -51 -3 -26 -10 -47 -14 -47 -5 0 -9
-11 -9 -25 0 -14 -4 -25 -9 -25 -5 0 -12 -36 -16 -80 -4 -44 -11 -80 -15 -80
-5 0 -11 -35 -14 -78 -5 -77 -13 -148 -21 -188 -4 -16 -15 -24 -40 -28 -19 -4
-35 -11 -35 -16 0 -6 -11 -10 -25 -10 -14 0 -25 -4 -25 -10 0 -6 -27 -10 -60
-10 -33 0 -60 4 -60 10 0 6 -11 10 -25 10 -14 0 -25 5 -25 10 0 6 -6 10 -14
10 -22 0 -46 29 -46 56 0 13 -4 24 -10 24 -5 0 -10 16 -10 35 0 19 4 35 9 35
5 0 12 25 16 55 3 30 11 55 16 55 5 0 9 9 9 20 0 11 -4 20 -10 20 -5 0 -10 7
-10 15 0 10 -10 15 -30 15 -16 0 -30 -4 -30 -9 0 -5 -10 -13 -22 -17 -31 -9
-116 -98 -124 -128 -3 -14 -10 -26 -15 -26 -5 0 -9 -16 -9 -35 0 -19 -4 -35
-10 -35 -5 0 -10 -22 -10 -50 0 -27 5 -50 10 -50 6 0 10 -16 10 -35 0 -19 4
-35 9 -35 5 0 12 -11 15 -25 4 -14 11 -25 16 -25 6 0 10 -5 10 -11 0 -15 22
-35 47 -43 12 -4 25 -16 28 -26 4 -13 19 -21 51 -26 24 -3 44 -10 44 -15 0 -5
11 -9 24 -9 13 0 26 -6 28 -12 4 -10 85 -14 351 -17 l347 -3 0 31 c0 17 -4 31
-10 31 -5 0 -10 15 -10 34 0 19 -6 36 -12 38 -10 4 -13 60 -13 238 0 178 3
234 13 237 6 3 12 16 12 29 0 13 4 24 9 24 5 0 12 20 15 44 5 32 13 47 27 51
10 4 19 13 19 22 0 17 83 103 100 103 5 0 10 4 10 10 0 5 11 12 25 16 14 3 25
10 25 15 0 5 9 9 19 9 11 0 21 5 23 11 2 6 25 13 51 16 26 3 47 10 47 14 0 5
18 9 40 9 39 0 40 1 40 34 0 19 -5 36 -12 38 -9 3 -14 53 -16 176 l-4 172 25
0 c17 0 28 -7 32 -20 4 -11 15 -20 26 -20 11 0 22 -7 25 -15 7 -17 74 -21 74
-5 0 6 28 10 65 10 37 0 65 -4 65 -10 0 -21 63 -10 86 15 13 14 30 25 38 25 8
0 16 4 18 9 2 4 13 11 25 15 20 6 22 2 29 -51 9 -71 -3 -267 -16 -271 -6 -2
-10 -15 -10 -28 0 -13 -4 -24 -10 -24 -5 0 -12 -16 -16 -35 -3 -19 -10 -35
-15 -35 -5 0 -9 -7 -9 -15 0 -8 -4 -15 -10 -15 -5 0 -10 -7 -10 -15 0 -8 5
-15 10 -15 6 0 10 -11 10 -25 0 -14 5 -25 10 -25 6 0 10 -55 10 -145 0 -90 -4
-145 -10 -145 -5 0 -10 -11 -10 -25 0 -14 -4 -25 -9 -25 -5 0 -11 -18 -15 -40
-3 -22 -11 -40 -16 -40 -6 0 -10 -7 -10 -15 0 -8 -4 -15 -10 -15 -5 0 -10 -8
-10 -19 0 -10 -11 -27 -25 -37 -24 -18 -25 -24 -25 -112 l0 -93 44 -43 c25
-24 48 -55 52 -70 l6 -26 218 0 217 0 7 41 c4 22 4 57 0 77 -8 42 -53 92 -83
92 -11 0 -21 5 -21 10 0 6 -7 10 -15 10 -8 0 -24 9 -35 20 -17 17 -20 33 -20
110 0 49 4 90 9 90 5 0 13 25 16 55 4 30 11 55 16 55 5 0 9 11 9 25 0 14 4 25
9 25 5 0 12 23 16 50 4 28 11 50 16 50 5 0 9 11 9 25 0 14 4 25 10 25 5 0 12
27 16 60 4 33 11 60 15 60 5 0 9 15 9 34 0 19 6 36 13 38 9 4 12 52 12 198 0
146 -3 194 -12 197 -7 3 -13 18 -13 34 0 16 -4 29 -9 29 -5 0 -12 38 -16 85
-4 47 -11 85 -16 85 -5 0 -9 27 -9 60 0 33 -4 60 -10 60 -6 0 -10 27 -10 60 0
59 1 62 46 105 25 25 52 45 60 45 8 0 14 5 14 10 0 6 7 10 15 10 8 0 15 4 15
10 0 5 11 12 25 16 14 3 25 10 25 15 0 5 7 9 15 9 8 0 29 14 47 32 l33 32 -1
100 c0 67 -4 101 -12 104 -7 2 -12 8 -12 13 0 5 -8 18 -17 29 -16 18 -30 20
-160 20 -132 0 -142 1 -148 19 -3 11 -15 23 -25 26 -10 3 -22 15 -25 25 -3 10
-16 22 -28 26 -12 4 -29 15 -38 25 -9 11 -30 22 -48 25 -17 4 -31 10 -31 15 0
5 -34 9 -75 9 -41 0 -75 -4 -75 -9z"/>
<path d="M1458 593 c-16 -2 -28 -9 -28 -14 0 -5 -9 -9 -20 -9 -11 0 -20 -4
-20 -10 0 -5 -6 -10 -14 -10 -18 0 -46 -27 -46 -43 0 -9 13 -11 40 -9 22 2 40
8 40 13 0 5 32 9 71 9 65 0 73 -2 100 -29 27 -28 29 -34 29 -110 0 -45 -4 -81
-9 -81 -5 0 -11 -18 -15 -40 -3 -22 -11 -40 -16 -40 -19 0 -10 -19 13 -26 26
-8 57 -41 57 -61 0 -7 5 -13 10 -13 6 0 10 -7 10 -15 0 -11 12 -15 50 -15 49
0 50 1 50 30 0 17 -4 30 -10 30 -5 0 -10 8 -10 18 0 18 -33 52 -51 52 -12 0
-1 73 12 78 12 5 12 192 0 192 -5 0 -12 12 -15 26 -7 28 -28 54 -44 54 -6 0
-12 5 -14 11 -4 12 -123 21 -170 12z"/>
</g>
</svg>
