<?xml version="1.0" standalone="no"?>
<!DOCTYPE svg PUBLIC "-//W3C//DTD SVG 20010904//EN"
 "http://www.w3.org/TR/2001/REC-SVG-20010904/DTD/svg10.dtd">
<svg version="1.0" xmlns="http://www.w3.org/2000/svg"
 width="511.000000pt" height="489.000000pt" viewBox="0 0 511.000000 489.000000"
 preserveAspectRatio="xMidYMid meet">
<metadata>
Created by potrace 1.16, written by Peter Selinger 2001-2019
</metadata>
<g transform="translate(0.000000,489.000000) scale(0.100000,-0.100000)"
fill="#000000" stroke="none">
<path d="M3640 4801 c-41 -9 -122 -35 -180 -58 -58 -22 -154 -50 -214 -62
-137 -28 -203 -60 -280 -136 -69 -68 -101 -126 -149 -270 -88 -260 -121 -546
-71 -622 18 -29 60 -50 122 -63 75 -17 171 8 319 81 69 33 127 59 129 56 5 -5
-27 -65 -57 -109 -33 -46 -136 -115 -222 -148 -102 -40 -139 -59 -154 -79 -7
-9 -36 -63 -65 -121 -76 -150 -177 -272 -364 -436 -180 -159 -398 -357 -449
-408 -201 -201 -338 -448 -448 -806 -46 -150 -54 -183 -62 -255 -4 -33 -16
-112 -27 -175 -11 -63 -23 -191 -28 -284 -7 -142 -11 -173 -27 -195 -11 -14
-62 -47 -114 -74 -117 -59 -218 -77 -335 -59 -128 20 -207 71 -253 163 -38 77
-39 120 -6 254 13 55 27 119 31 141 7 46 -12 154 -27 154 -5 0 -35 -13 -67
-28 -190 -92 -318 -253 -352 -442 -22 -123 10 -304 75 -414 94 -160 363 -296
625 -317 138 -10 1140 -12 1156 -1 8 5 2 37 -22 112 -49 152 -65 272 -71 540
-8 358 11 496 91 665 97 204 257 366 461 468 65 32 168 62 279 82 49 8 91 16
92 18 2 1 -6 36 -16 77 -44 169 -62 450 -40 639 5 46 11 86 14 88 2 2 55 -26
117 -63 90 -54 120 -68 148 -66 20 1 126 3 237 5 l201 3 64 41 c65 43 150 83
174 83 32 0 31 -484 -1 -620 -15 -59 -81 -206 -132 -288 l-20 -34 20 -46 c54
-121 72 -349 44 -542 -24 -161 -95 -337 -192 -476 -69 -99 -74 -116 -74 -267
0 -151 -5 -139 95 -248 28 -31 62 -81 76 -112 19 -45 29 -56 53 -61 16 -3 203
-6 416 -6 l388 0 7 86 c15 172 -25 242 -179 319 -139 70 -186 127 -186 227 0
65 54 269 160 598 164 510 198 643 211 836 14 218 1 363 -50 550 -52 194 -123
606 -128 749 -4 109 -4 111 26 155 37 56 108 109 281 211 152 89 218 150 239
220 17 55 17 209 1 282 -19 81 -58 149 -100 169 -30 16 -66 18 -261 18 -125 0
-241 3 -259 7 -24 4 -64 36 -139 107 -58 56 -119 110 -136 122 -118 82 -235
102 -395 65z"/>
<path d="M3129 2308 c-16 -30 -16 -92 0 -112 12 -14 25 -15 75 -10 34 3 64 9
67 13 11 11 -11 88 -32 109 -28 31 -94 31 -110 0z"/>
<path d="M3555 2313 c-17 -16 -30 -45 -41 -87 -5 -22 -2 -24 48 -30 29 -4 71
-9 92 -13 l39 -5 -6 58 c-4 44 -12 64 -28 77 -27 22 -82 22 -104 0z"/>
<path d="M3320 2045 l0 -45 85 0 c81 0 85 1 85 23 0 12 3 32 6 45 6 22 5 22
-85 22 l-91 0 0 -45z"/>
<path d="M2855 1044 c-54 -9 -159 -47 -200 -72 -42 -26 -129 -111 -122 -118 2
-2 53 7 113 22 118 28 267 36 316 16 45 -18 106 -81 124 -128 26 -68 15 -164
-36 -321 l-43 -133 44 -48 c24 -26 66 -76 94 -109 54 -67 68 -73 166 -73 l59
0 -6 27 c-13 55 -42 109 -93 172 -62 77 -64 100 -25 260 45 182 22 308 -74
413 -58 63 -114 88 -209 92 -43 3 -91 2 -108 0z"/>
</g>
</svg>
